<?xml version="1.0" encoding="utf-8"?>
<!-- Generator: Adobe Illustrator 29.6.1, SVG Export Plug-In . SVG Version: 9.03 Build 0)  -->
<svg version="1.0" xmlns="http://www.w3.org/2000/svg" xmlns:xlink="http://www.w3.org/1999/xlink" x="0px" y="0px"
	 viewBox="0 0 1280 769" enable-background="new 0 0 1280 769" xml:space="preserve">
<g id="Layer_1_00000024688473755643423300000017365139044120436916_" display="none">
	<g display="inline">
		<g>
			<linearGradient id="SVGID_1_" gradientUnits="userSpaceOnUse" x1="362.5962" y1="388.7676" x2="318.0981" y2="426.8869">
				<stop  offset="5.327789e-09" style="stop-color:#6AC12B"/>
				<stop  offset="1" style="stop-color:#139631"/>
			</linearGradient>
			<path fill="url(#SVGID_1_)" d="M384.42,414.52c-12.05,16.77-24.75,31.64-31.8,39.6c-2.95,3.34-8.16,3.34-11.11,0
				c-10.28-11.62-32.58-37.92-47.37-63.4c-0.05-0.08-0.08-0.12-0.08-0.14c2.51,1.92,5.25,3.64,8.23,4.99
				c4.72,2.12,10.25,4.89,15.58,4.71c2.76-0.1,5.15-1.66,7.18-3.41c4.33-3.71,8.62-7.46,12.97-11.14c2.41-2.04,5.01-5.27,8.18-6.05
				c3.16-0.77,6.3,1.43,8.71,3.19c3.89,2.84,7.34,6.3,10.65,9.78c0.4,0.42,0.8,0.84,1.19,1.27c2.46,2.62,4.83,5.32,7.17,8.05
				c1.11,1.3,2.15,2.51,3.1,3.64c0.12,0.14,0.24,0.27,0.35,0.41c0.77,0.91,1.49,1.77,2.18,2.58c0.18,0.22,0.3,0.36,0.34,0.41
				c0.01,0.01,0.01,0.02,0.01,0.02C381.7,411.21,383.19,413.03,384.42,414.52z"/>
			
				<linearGradient id="SVGID_00000051342664869067814930000005116399201237543046_" gradientUnits="userSpaceOnUse" x1="397.2987" y1="317.099" x2="290.4613" y2="408.6212">
				<stop  offset="5.327789e-09" style="stop-color:#1183CE"/>
				<stop  offset="1" style="stop-color:#0168C1"/>
			</linearGradient>
			<path fill="url(#SVGID_00000051342664869067814930000005116399201237543046_)" d="M414.39,350.99
				c0-37.18-30.15-67.32-67.32-67.32c-37.18,0-67.32,30.14-67.32,67.32c0,4.4,0.94,9.28,2.6,14.47c-2.98-0.29-6.04-1.06-8.62-2.68
				c0.45,0.59,15.23,19.75,36.04,23.67c3.19,0.59,6.52,0,9.16-1.87c2.4-1.71,5.13-4.65,7.46-9.74
				c9.65-15.89,11.55-18.01,16.56-18.16c5.16-0.15,19.41,13.86,19.41,13.86c1.73,1.7,3.42,3.62,5.06,5.68
				c1.62,2.02,3.18,4.18,4.68,6.43c1.66,2.46,3.15,5.03,4.53,7.66c3.36,6.43,10.44,20.44,13.88,30.41c0,0,1.07-9.63,0.17-15.17
				C403.6,386.34,414.39,365.86,414.39,350.99z M359.04,309.07c7.33,0,13.18,6.34,12.37,13.84c-0.62,5.71-5.22,10.32-10.92,10.97
				c-7.52,0.85-13.89-5.01-13.89-12.36C346.6,314.64,352.17,309.07,359.04,309.07z M344.85,347.25
				c-21.47-18.83-47.01-12.4-47.67-12.23c17.12-8.69,29.81-4.9,43.41,0.29c13.61,5.18,27.59,18.24,42.53,18.52
				c14.93,0.27,14.79-30.56,14.79-30.56c3.01,17.01,2.6,28.17,0.22,35.45c0,0.01-0.01,0.02-0.01,0.03
				c-2.83,8.58-8.41,11.76-14.37,12.76C372.72,373.36,366.61,366.32,344.85,347.25z"/>
			
				<linearGradient id="SVGID_00000141426494354842626940000014718765798524088715_" gradientUnits="userSpaceOnUse" x1="334.1518" y1="472.8929" x2="359.0381" y2="472.8929">
				<stop  offset="5.327789e-09" style="stop-color:#6AC12B"/>
				<stop  offset="1" style="stop-color:#139631"/>
			</linearGradient>
			<path fill="url(#SVGID_00000141426494354842626940000014718765798524088715_)" d="M359.04,472.89c0,6.88-5.57,12.44-12.44,12.44
				c-6.87,0-12.44-5.57-12.44-12.44c0-0.38,0.01-0.76,0.06-1.14c0.57-6.34,5.9-11.3,12.39-11.3c2.41,0,4.66,0.69,6.56,1.87
				C356.69,464.52,359.04,468.43,359.04,472.89z"/>
			
				<linearGradient id="SVGID_00000021084252993696369980000001430672048355868596_" gradientUnits="userSpaceOnUse" x1="358.8161" y1="441.482" x2="328.9672" y2="389.7793">
				<stop  offset="5.327789e-09" style="stop-color:#6AC12B"/>
				<stop  offset="1" style="stop-color:#139631"/>
			</linearGradient>
			<path fill="url(#SVGID_00000021084252993696369980000001430672048355868596_)" d="M366.73,393.91c-3.13-3.05-9.3-7.89-16.45-7.27
				c-10.36,0.9-16.25,21.52-32.5,19.11c-15.23-2.25-22.75-13.62-23.63-15.02c-0.05-0.08-0.08-0.12-0.08-0.14
				c2.51,1.92,5.25,3.64,8.23,4.99c4.72,2.12,10.25,4.89,15.58,4.71c2.76-0.1,5.15-1.66,7.18-3.41c4.33-3.71,8.62-7.46,12.97-11.14
				c2.41-2.04,5.01-5.27,8.18-6.05c3.16-0.77,6.3,1.43,8.71,3.19c3.89,2.84,7.34,6.3,10.65,9.78
				C365.94,393.06,366.34,393.48,366.73,393.91z"/>
			<path opacity="0.49" fill="#00669E" d="M398.12,358.75c-4.69,19.68-20.42,20.43-30.71,17.47c-1.64-2.06-3.34-3.98-5.06-5.68
				c0,0-14.25-14.01-19.41-13.86c-5.01,0.15-6.9,2.27-16.56,18.16c-2.32,5.08-5.06,8.03-7.46,9.74c-2.64,1.87-5.97,2.47-9.16,1.87
				c-20.82-3.92-35.59-23.07-36.04-23.67c2.59,1.62,5.64,2.39,8.62,2.68c30.38,14.98,53.22-4.64,49-16.5
				c-4.22-11.86-34.17-13.94-34.17-13.94c0.66-0.17,26.2-6.6,47.67,12.23c21.76,19.07,27.87,26.11,38.9,24.26
				C389.71,370.51,395.29,367.33,398.12,358.75z"/>
			
				<linearGradient id="SVGID_00000087378844604150044430000002472996699829462429_" gradientUnits="userSpaceOnUse" x1="327.8419" y1="473.8266" x2="352.7282" y2="473.8266">
				<stop  offset="5.327789e-09" style="stop-color:#6AC12B"/>
				<stop  offset="1" style="stop-color:#139631"/>
			</linearGradient>
			<path fill="url(#SVGID_00000087378844604150044430000002472996699829462429_)" d="M359.04,472.89c0,6.88-5.57,12.44-12.44,12.44
				c-6.87,0-12.44-5.57-12.44-12.44c0-0.38,0.01-0.76,0.06-1.14c0.79,1.51,1.8,2.9,3.06,4.04c2.37,2.15,5.72,3.36,8.86,2.69
				c2.41-0.51,4.51-2.09,5.93-4.09c1.47-2.07,2.26-4.62,2.22-7.15c-0.02-1.7-0.41-3.39-1.13-4.92
				C356.69,464.52,359.04,468.43,359.04,472.89z"/>
		</g>
		<g>
			<path fill="#0057A5" d="M486.01,352.08l-1.94,10.78h-12.93l-6.7,37.95h-13.62l6.7-37.95h-12.86l1.94-10.78H486.01z"/>
			<path fill="#0057A5" d="M529,362.04l-6.91,38.78h-13.55l0.97-5.53c-1.52,1.75-3.38,3.17-5.56,4.25c-2.19,1.08-4.6,1.62-7.22,1.62
				c-3.83,0-6.8-1.08-8.92-3.25c-2.12-2.17-3.18-5.18-3.18-9.06c0-1.34,0.14-2.76,0.41-4.29l3.94-22.53h13.55l-3.66,20.81
				c-0.14,0.6-0.21,1.2-0.21,1.8c0,1.66,0.48,2.96,1.45,3.91c0.97,0.95,2.28,1.42,3.94,1.42c1.94,0,3.57-0.6,4.91-1.8
				c1.34-1.2,2.23-2.86,2.7-4.98l3.73-21.15H529z"/>
			<path fill="#0057A5" d="M569.37,354.47c3.27,1.59,5.76,3.84,7.47,6.74c1.7,2.9,2.56,6.29,2.56,10.16c0,1.75-0.16,3.43-0.48,5.05
				c-0.83,4.7-2.62,8.89-5.36,12.58c-2.74,3.69-6.22,6.58-10.44,8.67c-4.22,2.1-8.88,3.15-14,3.15h-19.28l8.64-48.73h19.29
				C562.22,352.08,566.09,352.88,569.37,354.47z M560.1,385.64c2.63-2.19,4.31-5.26,5.05-9.23c0.18-0.92,0.28-1.91,0.28-2.97
				c0-3.09-0.95-5.46-2.83-7.12c-1.89-1.66-4.54-2.49-7.95-2.49h-4.63l-4.49,25.09h4.7C554.18,388.92,557.48,387.83,560.1,385.64z"
				/>
			<path fill="#0057A5" d="M617.16,365.63c2.97,2.72,4.46,6.43,4.46,11.13c0,1.57-0.12,2.95-0.35,4.15
				c-0.28,1.48-0.55,2.53-0.83,3.18H594.8c-0.05,0.28-0.07,0.69-0.07,1.24c0,1.75,0.43,3.04,1.28,3.87
				c0.85,0.83,1.99,1.24,3.42,1.24c2.26,0,4.05-1.01,5.39-3.04h14.38c-1.06,2.67-2.64,5.06-4.73,7.15c-2.1,2.1-4.56,3.74-7.4,4.94
				c-2.83,1.2-5.84,1.8-9.02,1.8c-5.07,0-9.1-1.38-12.1-4.15c-3-2.76-4.49-6.57-4.49-11.4c0-1.38,0.14-2.83,0.41-4.35
				c0.74-4.05,2.2-7.57,4.39-10.54c2.19-2.97,4.91-5.26,8.16-6.88c3.25-1.61,6.81-2.42,10.68-2.42
				C610.17,361.55,614.19,362.91,617.16,365.63z M608.07,376.76c0-1.47-0.46-2.59-1.38-3.35c-0.92-0.76-2.12-1.14-3.59-1.14
				c-1.71,0-3.18,0.48-4.42,1.45c-1.24,0.97-2.17,2.4-2.77,4.29h12.03C608.03,377.36,608.07,376.94,608.07,376.76z"/>
			<path fill="#0057A5" d="M647.96,363.14c2.12-1.06,4.49-1.59,7.12-1.59c4.05,0,7.31,1.34,9.78,4.01c2.46,2.67,3.7,6.34,3.7,10.99
				c0,1.48-0.14,3.09-0.41,4.84c-0.74,4.01-2.1,7.52-4.08,10.54c-1.98,3.02-4.37,5.33-7.15,6.95c-2.79,1.61-5.73,2.42-8.81,2.42
				c-2.63,0-4.8-0.53-6.53-1.59c-1.73-1.06-2.98-2.49-3.77-4.29l-4.22,23.92h-13.55l10.09-57.3h13.55l-0.97,5.39
				C644.08,365.63,645.84,364.2,647.96,363.14z M654.52,379.39c0-1.89-0.54-3.36-1.62-4.42c-1.08-1.06-2.48-1.59-4.18-1.59
				c-1.98,0-3.79,0.72-5.43,2.14c-1.64,1.43-2.66,3.39-3.08,5.88c-0.14,0.69-0.21,1.34-0.21,1.94c0,1.94,0.54,3.45,1.62,4.53
				c1.08,1.08,2.48,1.62,4.18,1.62c2.03,0,3.85-0.73,5.46-2.18c1.61-1.45,2.63-3.42,3.04-5.91
				C654.45,380.7,654.52,380.03,654.52,379.39z"/>
			<path fill="#0057A5" d="M679.3,399.29c-2.6-1.34-4.62-3.22-6.05-5.67c-1.43-2.44-2.14-5.3-2.14-8.57c0-4.42,1.05-8.43,3.14-12.03
				c2.1-3.59,4.99-6.4,8.67-8.43c3.69-2.03,7.81-3.04,12.37-3.04c3.36,0,6.35,0.67,8.95,2c2.6,1.34,4.63,3.24,6.08,5.7
				c1.45,2.47,2.18,5.33,2.18,8.61c0,4.47-1.06,8.49-3.18,12.06c-2.12,3.57-5.02,6.36-8.71,8.36c-3.69,2-7.81,3.01-12.37,3.01
				C684.89,401.3,681.9,400.63,679.3,399.29z M694.65,388.09c1.27-1.01,2.23-2.33,2.9-3.94c0.67-1.61,1-3.27,1-4.98
				c0-1.94-0.5-3.41-1.49-4.42c-0.99-1.01-2.27-1.52-3.84-1.52c-1.66,0-3.1,0.51-4.32,1.52c-1.22,1.01-2.17,2.33-2.83,3.94
				c-0.67,1.61-1,3.3-1,5.05c0,1.94,0.48,3.4,1.45,4.39c0.97,0.99,2.23,1.49,3.8,1.49C691.94,389.62,693.38,389.11,694.65,388.09z"
				/>
			<path fill="#0057A5" d="M739.82,363.69c2.4-1.34,4.84-2,7.33-2l-2.49,14.45h-3.8c-2.86,0-5.09,0.53-6.7,1.59
				c-1.61,1.06-2.7,2.9-3.25,5.53l-3.11,17.56h-13.62l6.91-38.78h13.55l-1.24,7.05C735.28,366.83,737.42,365.03,739.82,363.69z"/>
			<path fill="#0057A5" d="M763.39,386.3c-0.05,0.23-0.07,0.51-0.07,0.83c0,0.74,0.22,1.28,0.66,1.62c0.44,0.35,1.16,0.52,2.18,0.52
				h3.94l-2.07,11.54h-5.94c-8.43,0-12.65-3.55-12.65-10.64c0-1.2,0.14-2.56,0.41-4.08l2.28-12.79h-4.77l2-11.27h4.77l1.66-9.4
				h13.62l-1.66,9.4h6.98l-2,11.27h-6.98L763.39,386.3z"/>
			<path fill="#0057A5" d="M810.7,365.63c2.97,2.72,4.46,6.43,4.46,11.13c0,1.57-0.12,2.95-0.35,4.15
				c-0.28,1.48-0.55,2.53-0.83,3.18h-25.64c-0.05,0.28-0.07,0.69-0.07,1.24c0,1.75,0.43,3.04,1.28,3.87
				c0.85,0.83,1.99,1.24,3.42,1.24c2.26,0,4.05-1.01,5.39-3.04h14.38c-1.06,2.67-2.64,5.06-4.73,7.15c-2.1,2.1-4.56,3.74-7.4,4.94
				c-2.83,1.2-5.84,1.8-9.02,1.8c-5.07,0-9.1-1.38-12.1-4.15c-3-2.76-4.49-6.57-4.49-11.4c0-1.38,0.14-2.83,0.41-4.35
				c0.74-4.05,2.2-7.57,4.39-10.54c2.19-2.97,4.91-5.26,8.16-6.88c3.25-1.61,6.81-2.42,10.68-2.42
				C803.71,361.55,807.73,362.91,810.7,365.63z M801.61,376.76c0-1.47-0.46-2.59-1.38-3.35c-0.92-0.76-2.12-1.14-3.59-1.14
				c-1.7,0-3.18,0.48-4.42,1.45c-1.24,0.97-2.17,2.4-2.76,4.29h12.03C801.56,377.36,801.61,376.94,801.61,376.76z"/>
			<path fill="#4CB821" d="M832.23,390.51h15.14l-1.87,10.3h-28.75l8.64-48.73h13.55L832.23,390.51z"/>
			<path fill="#4CB821" d="M859.78,399.29c-2.6-1.34-4.62-3.22-6.05-5.67c-1.43-2.44-2.14-5.3-2.14-8.57
				c0-4.42,1.05-8.43,3.14-12.03c2.1-3.59,4.99-6.4,8.67-8.43c3.69-2.03,7.81-3.04,12.37-3.04c3.36,0,6.35,0.67,8.95,2
				c2.6,1.34,4.63,3.24,6.08,5.7c1.45,2.47,2.18,5.33,2.18,8.61c0,4.47-1.06,8.49-3.18,12.06c-2.12,3.57-5.02,6.36-8.71,8.36
				c-3.69,2-7.81,3.01-12.37,3.01C865.36,401.3,862.38,400.63,859.78,399.29z M875.12,388.09c1.27-1.01,2.23-2.33,2.9-3.94
				c0.67-1.61,1-3.27,1-4.98c0-1.94-0.5-3.41-1.49-4.42c-0.99-1.01-2.27-1.52-3.84-1.52c-1.66,0-3.1,0.51-4.32,1.52
				c-1.22,1.01-2.17,2.33-2.83,3.94c-0.67,1.61-1,3.3-1,5.05c0,1.94,0.48,3.4,1.45,4.39c0.97,0.99,2.23,1.49,3.8,1.49
				C872.41,389.62,873.85,389.11,875.12,388.09z"/>
			<path fill="#4CB821" d="M900.28,370.85c2.19-2.97,4.91-5.26,8.16-6.88c3.25-1.61,6.78-2.42,10.61-2.42
				c4.93,0,8.85,1.35,11.75,4.04c2.9,2.7,4.42,6.46,4.56,11.3h-14.45c-0.37-2.53-1.77-3.8-4.22-3.8c-1.7,0-3.18,0.7-4.42,2.11
				c-1.24,1.41-2.1,3.47-2.56,6.19c-0.19,0.92-0.28,1.84-0.28,2.76c0,1.84,0.39,3.24,1.17,4.18c0.78,0.95,1.84,1.42,3.18,1.42
				c2.49,0,4.31-1.27,5.46-3.8h14.45c-1.8,4.79-4.62,8.55-8.47,11.27c-3.85,2.72-8.26,4.08-13.24,4.08c-5.07,0-9.09-1.38-12.06-4.15
				c-2.97-2.76-4.46-6.57-4.46-11.4c0-1.38,0.14-2.83,0.41-4.35C896.63,377.34,898.09,373.82,900.28,370.85z"/>
			<path fill="#4CB821" d="M941.92,370.88c1.98-2.99,4.37-5.3,7.15-6.91c2.79-1.61,5.72-2.42,8.81-2.42c2.67,0,4.88,0.53,6.64,1.59
				c1.75,1.06,2.97,2.49,3.66,4.29l0.97-5.39h13.55l-6.84,38.78h-13.55l0.97-5.39c-1.34,1.8-3.09,3.23-5.25,4.29
				c-2.17,1.06-4.56,1.59-7.19,1.59c-4.06,0-7.3-1.35-9.75-4.04c-2.44-2.7-3.66-6.37-3.66-11.02c0-1.52,0.14-3.13,0.41-4.84
				C938.58,377.38,939.94,373.88,941.92,370.88z M965.98,379.45c0-1.94-0.54-3.43-1.62-4.49c-1.08-1.06-2.48-1.59-4.18-1.59
				c-2.03,0-3.85,0.7-5.46,2.11c-1.61,1.41-2.63,3.38-3.04,5.91c-0.14,0.69-0.21,1.36-0.21,2c0,1.94,0.54,3.43,1.62,4.49
				c1.08,1.06,2.48,1.59,4.18,1.59c2.03,0,3.85-0.71,5.46-2.14c1.61-1.43,2.63-3.41,3.04-5.94
				C965.91,380.7,965.98,380.05,965.98,379.45z"/>
			<path fill="#4CB821" d="M1006.28,349.66l-9.06,51.15H983.6l9.06-51.15H1006.28z"/>
		</g>
	</g>
</g>
<g id="Layer_2">
	<g>
		
			<linearGradient id="SVGID_00000005229161251001717200000012977618318149592234_" gradientUnits="userSpaceOnUse" x1="655.0781" y1="318.6836" x2="613.1473" y2="354.6036">
			<stop  offset="5.327789e-09" style="stop-color:#6AC12B"/>
			<stop  offset="1" style="stop-color:#139631"/>
		</linearGradient>
		<path fill="url(#SVGID_00000005229161251001717200000012977618318149592234_)" d="M675.64,342.95
			c-11.36,15.81-23.32,29.81-29.96,37.32c-2.78,3.14-7.69,3.14-10.47,0c-9.69-10.95-30.7-35.74-44.64-59.74
			c-0.05-0.07-0.07-0.11-0.08-0.13c2.37,1.81,4.94,3.43,7.75,4.7c4.45,2,9.66,4.61,14.68,4.44c2.6-0.09,4.85-1.57,6.76-3.21
			c4.08-3.49,8.13-7.03,12.22-10.5c2.27-1.92,4.72-4.97,7.7-5.7c2.98-0.72,5.94,1.34,8.21,3.01c3.66,2.68,6.91,5.93,10.03,9.21
			c0.38,0.4,0.75,0.79,1.12,1.19c2.32,2.47,4.55,5.01,6.76,7.59c1.05,1.23,2.02,2.37,2.92,3.43c0.11,0.13,0.22,0.26,0.33,0.38
			c0.72,0.86,1.4,1.67,2.05,2.43c0.17,0.21,0.28,0.34,0.32,0.38c0.01,0.01,0.01,0.02,0.01,0.02
			C673.08,339.83,674.49,341.54,675.64,342.95z"/>
		
			<linearGradient id="SVGID_00000163065257080095217350000010520034340805594244_" gradientUnits="userSpaceOnUse" x1="687.7784" y1="251.1498" x2="587.105" y2="337.3917">
			<stop  offset="5.327789e-09" style="stop-color:#1183CE"/>
			<stop  offset="1" style="stop-color:#0168C1"/>
		</linearGradient>
		<path fill="url(#SVGID_00000163065257080095217350000010520034340805594244_)" d="M703.88,283.08c0-35.04-28.41-63.44-63.44-63.44
			c-35.04,0-63.44,28.4-63.44,63.44c0,4.15,0.89,8.75,2.45,13.64c-2.81-0.28-5.69-1-8.13-2.52c0.43,0.56,14.35,18.61,33.96,22.3
			c3.01,0.56,6.14,0,8.63-1.77c2.26-1.61,4.84-4.38,7.03-9.17c9.1-14.97,10.88-16.97,15.6-17.11c4.86-0.15,18.29,13.06,18.29,13.06
			c1.63,1.6,3.22,3.41,4.77,5.35c1.52,1.9,2.99,3.94,4.41,6.06c1.56,2.32,2.97,4.74,4.26,7.22c3.16,6.06,9.84,19.26,13.08,28.66
			c0,0,1.01-9.08,0.16-14.3C693.72,316.39,703.88,297.1,703.88,283.08z M651.73,243.59c6.91,0,12.42,5.97,11.65,13.04
			c-0.58,5.38-4.92,9.73-10.29,10.33c-7.09,0.8-13.09-4.72-13.09-11.65C640,248.84,645.26,243.59,651.73,243.59z M638.36,279.56
			c-20.23-17.74-44.3-11.69-44.92-11.53c16.13-8.19,28.09-4.62,40.91,0.27c12.83,4.88,26,17.19,40.07,17.45
			c14.07,0.26,13.94-28.8,13.94-28.8c2.84,16.03,2.45,26.54,0.2,33.4c0,0.01-0.01,0.02-0.01,0.03c-2.66,8.09-7.92,11.08-13.54,12.02
			C664.62,304.17,658.86,297.54,638.36,279.56z"/>
		
			<linearGradient id="SVGID_00000075122793690168817560000001221765971510441862_" gradientUnits="userSpaceOnUse" x1="628.2747" y1="397.9553" x2="651.7253" y2="397.9553">
			<stop  offset="5.327789e-09" style="stop-color:#6AC12B"/>
			<stop  offset="1" style="stop-color:#139631"/>
		</linearGradient>
		<path fill="url(#SVGID_00000075122793690168817560000001221765971510441862_)" d="M651.73,397.96c0,6.48-5.25,11.73-11.73,11.73
			c-6.47,0-11.73-5.25-11.73-11.73c0-0.36,0.01-0.72,0.05-1.07c0.54-5.97,5.56-10.65,11.67-10.65c2.27,0,4.39,0.65,6.18,1.76
			C649.51,390.07,651.73,393.75,651.73,397.96z"/>
		
			<linearGradient id="SVGID_00000157998421782737134440000004645750435676179108_" gradientUnits="userSpaceOnUse" x1="651.5161" y1="368.3566" x2="623.3893" y2="319.6368">
			<stop  offset="5.327789e-09" style="stop-color:#6AC12B"/>
			<stop  offset="1" style="stop-color:#139631"/>
		</linearGradient>
		<path fill="url(#SVGID_00000157998421782737134440000004645750435676179108_)" d="M658.97,323.53c-2.95-2.87-8.76-7.43-15.5-6.85
			c-9.76,0.84-15.31,20.28-30.63,18.01c-14.36-2.12-21.44-12.83-22.27-14.16c-0.05-0.07-0.07-0.11-0.08-0.13
			c2.37,1.81,4.94,3.43,7.75,4.7c4.45,2,9.66,4.61,14.68,4.44c2.6-0.09,4.85-1.57,6.76-3.21c4.08-3.49,8.13-7.03,12.22-10.5
			c2.27-1.92,4.72-4.97,7.7-5.7c2.98-0.72,5.94,1.34,8.21,3.01c3.66,2.68,6.91,5.93,10.03,9.21
			C658.23,322.73,658.6,323.13,658.97,323.53z"/>
		<path opacity="0.49" fill="#00669E" d="M688.55,290.4c-4.42,18.54-19.24,19.25-28.93,16.46c-1.55-1.94-3.14-3.75-4.77-5.35
			c0,0-13.43-13.2-18.29-13.06c-4.72,0.14-6.51,2.14-15.6,17.11c-2.19,4.79-4.77,7.57-7.03,9.17c-2.49,1.77-5.63,2.33-8.63,1.77
			c-19.61-3.7-33.53-21.74-33.96-22.3c2.44,1.52,5.32,2.25,8.13,2.52c28.62,14.12,50.15-4.37,46.18-15.55
			c-3.98-11.18-32.2-13.14-32.2-13.14c0.63-0.16,24.69-6.22,44.92,11.53c20.5,17.97,26.26,24.6,36.65,22.86
			C680.63,301.48,685.89,298.48,688.55,290.4z"/>
		
			<linearGradient id="SVGID_00000067941890009204501700000012645662804421858979_" gradientUnits="userSpaceOnUse" x1="622.3289" y1="398.8351" x2="645.7794" y2="398.8351">
			<stop  offset="5.327789e-09" style="stop-color:#6AC12B"/>
			<stop  offset="1" style="stop-color:#139631"/>
		</linearGradient>
		<path fill="url(#SVGID_00000067941890009204501700000012645662804421858979_)" d="M651.73,397.96c0,6.48-5.25,11.73-11.73,11.73
			c-6.47,0-11.73-5.25-11.73-11.73c0-0.36,0.01-0.72,0.05-1.07c0.74,1.42,1.69,2.73,2.89,3.81c2.23,2.03,5.39,3.17,8.34,2.53
			c2.27-0.48,4.25-1.97,5.59-3.86c1.38-1.95,2.13-4.35,2.1-6.74c-0.02-1.6-0.39-3.19-1.06-4.64
			C649.51,390.07,651.73,393.75,651.73,397.96z"/>
		<g>
			<g>
				<path fill="#0057A5" d="M504.39,433.21l-1.82,10.16h-12.18l-6.32,35.76h-12.83l6.32-35.76h-12.11l1.82-10.16H504.39z"/>
				<path fill="#0057A5" d="M544.91,442.59l-6.51,36.54h-12.77l0.91-5.21c-1.43,1.65-3.18,2.99-5.24,4.01
					c-2.06,1.02-4.33,1.53-6.81,1.53c-3.61,0-6.41-1.02-8.4-3.06c-2-2.04-3-4.89-3-8.53c0-1.26,0.13-2.6,0.39-4.04l3.71-21.23h12.77
					l-3.45,19.61c-0.13,0.56-0.2,1.13-0.2,1.69c0,1.56,0.46,2.79,1.37,3.68c0.91,0.89,2.15,1.34,3.71,1.34
					c1.82,0,3.36-0.56,4.62-1.69c1.26-1.13,2.11-2.69,2.54-4.69l3.52-19.93H544.91z"/>
				<path fill="#0057A5" d="M582.94,435.45c3.08,1.5,5.43,3.61,7.03,6.35c1.61,2.74,2.41,5.93,2.41,9.57c0,1.65-0.15,3.24-0.46,4.75
					c-0.78,4.43-2.47,8.38-5.05,11.85c-2.58,3.47-5.86,6.2-9.83,8.17c-3.97,1.98-8.37,2.96-13.19,2.96h-18.17l8.14-45.92H572
					C576.21,433.21,579.86,433.95,582.94,435.45z M574.22,464.83c2.47-2.06,4.06-4.96,4.75-8.7c0.17-0.87,0.26-1.8,0.26-2.8
					c0-2.91-0.89-5.15-2.67-6.71c-1.78-1.56-4.28-2.34-7.49-2.34h-4.36l-4.23,23.64h4.43C568.64,467.92,571.74,466.89,574.22,464.83
					z"/>
				<path fill="#0057A5" d="M627.98,445.97c2.8,2.56,4.2,6.06,4.2,10.49c0,1.48-0.11,2.78-0.33,3.91c-0.26,1.39-0.52,2.39-0.78,3
					h-24.16c-0.04,0.26-0.07,0.65-0.07,1.17c0,1.65,0.4,2.87,1.2,3.65c0.8,0.78,1.88,1.17,3.22,1.17c2.13,0,3.82-0.95,5.08-2.87
					h13.55c-1,2.52-2.49,4.77-4.46,6.74c-1.98,1.98-4.3,3.53-6.97,4.66c-2.67,1.13-5.5,1.69-8.5,1.69c-4.78,0-8.58-1.3-11.4-3.91
					c-2.82-2.61-4.23-6.19-4.23-10.75c0-1.3,0.13-2.67,0.39-4.1c0.69-3.82,2.07-7.13,4.14-9.93c2.06-2.8,4.62-4.96,7.69-6.48
					c3.06-1.52,6.42-2.28,10.06-2.28C621.39,442.13,625.18,443.41,627.98,445.97z M619.42,456.46c0-1.39-0.43-2.44-1.3-3.16
					c-0.87-0.72-2-1.07-3.39-1.07c-1.61,0-3,0.46-4.17,1.37c-1.17,0.91-2.04,2.26-2.61,4.04h11.33
					C619.37,457.02,619.42,456.63,619.42,456.46z"/>
				<path fill="#0057A5" d="M657,443.63c2-1,4.23-1.5,6.71-1.5c3.82,0,6.89,1.26,9.22,3.78c2.32,2.52,3.48,5.97,3.48,10.36
					c0,1.39-0.13,2.91-0.39,4.56c-0.7,3.78-1.98,7.09-3.84,9.93c-1.87,2.84-4.11,5.03-6.74,6.55c-2.63,1.52-5.4,2.28-8.3,2.28
					c-2.47,0-4.53-0.5-6.16-1.5c-1.63-1-2.81-2.34-3.55-4.04l-3.97,22.54h-12.77l9.51-54h12.77l-0.91,5.08
					C653.35,445.97,655,444.63,657,443.63z M663.19,458.93c0-1.78-0.51-3.17-1.53-4.17c-1.02-1-2.33-1.5-3.94-1.5
					c-1.87,0-3.57,0.67-5.11,2.02c-1.54,1.35-2.51,3.19-2.9,5.54c-0.13,0.65-0.2,1.26-0.2,1.82c0,1.82,0.51,3.25,1.53,4.27
					c1.02,1.02,2.33,1.53,3.94,1.53c1.91,0,3.62-0.68,5.15-2.05c1.52-1.37,2.48-3.22,2.87-5.57
					C663.12,460.17,663.19,459.54,663.19,458.93z"/>
				<path fill="#0057A5" d="M686.54,477.69c-2.45-1.26-4.35-3.04-5.7-5.34c-1.35-2.3-2.02-4.99-2.02-8.08
					c0-4.17,0.99-7.95,2.96-11.33c1.98-3.39,4.7-6.04,8.17-7.95c3.47-1.91,7.36-2.87,11.66-2.87c3.17,0,5.98,0.63,8.43,1.89
					c2.45,1.26,4.36,3.05,5.73,5.37c1.37,2.32,2.05,5.03,2.05,8.11c0,4.21-1,8-3,11.37c-2,3.37-4.73,5.99-8.21,7.88
					c-3.47,1.89-7.36,2.83-11.66,2.83C691.8,479.58,688.99,478.95,686.54,477.69z M701,467.14c1.19-0.95,2.11-2.19,2.74-3.71
					c0.63-1.52,0.94-3.08,0.94-4.69c0-1.82-0.47-3.21-1.4-4.17c-0.93-0.95-2.14-1.43-3.61-1.43c-1.56,0-2.92,0.48-4.07,1.43
					c-1.15,0.96-2.04,2.19-2.67,3.71c-0.63,1.52-0.94,3.1-0.94,4.75c0,1.82,0.46,3.2,1.37,4.14c0.91,0.93,2.11,1.4,3.58,1.4
					C698.45,468.57,699.8,468.1,701,467.14z"/>
				<path fill="#0057A5" d="M743.56,444.15c2.26-1.26,4.56-1.89,6.9-1.89l-2.34,13.61h-3.58c-2.69,0-4.8,0.5-6.32,1.5
					c-1.52,1-2.54,2.74-3.06,5.21l-2.93,16.54H719.4l6.51-36.54h12.77l-1.17,6.64C739.28,447.1,741.3,445.41,743.56,444.15z"/>
				<path fill="#0057A5" d="M765.77,465.45c-0.04,0.22-0.07,0.48-0.07,0.78c0,0.7,0.21,1.2,0.62,1.53c0.41,0.33,1.1,0.49,2.05,0.49
					h3.71l-1.95,10.88h-5.6c-7.95,0-11.92-3.34-11.92-10.03c0-1.13,0.13-2.41,0.39-3.84l2.15-12.05h-4.49l1.89-10.62h4.49l1.56-8.86
					h12.83l-1.56,8.86h6.58l-1.89,10.62h-6.58L765.77,465.45z"/>
				<path fill="#0057A5" d="M810.35,445.97c2.8,2.56,4.2,6.06,4.2,10.49c0,1.48-0.11,2.78-0.33,3.91c-0.26,1.39-0.52,2.39-0.78,3
					h-24.16c-0.04,0.26-0.07,0.65-0.07,1.17c0,1.65,0.4,2.87,1.2,3.65c0.8,0.78,1.88,1.17,3.22,1.17c2.13,0,3.82-0.95,5.08-2.87
					h13.55c-1,2.52-2.49,4.77-4.46,6.74c-1.98,1.98-4.3,3.53-6.97,4.66c-2.67,1.13-5.5,1.69-8.5,1.69c-4.78,0-8.58-1.3-11.4-3.91
					c-2.82-2.61-4.23-6.19-4.23-10.75c0-1.3,0.13-2.67,0.39-4.1c0.69-3.82,2.07-7.13,4.14-9.93c2.06-2.8,4.62-4.96,7.69-6.48
					c3.06-1.52,6.42-2.28,10.06-2.28C803.76,442.13,807.55,443.41,810.35,445.97z M801.79,456.46c0-1.39-0.43-2.44-1.3-3.16
					c-0.87-0.72-2-1.07-3.39-1.07c-1.61,0-3,0.46-4.17,1.37c-1.17,0.91-2.04,2.26-2.61,4.04h11.33
					C801.75,457.02,801.79,456.63,801.79,456.46z"/>
			</g>
		</g>
		<g>
			<g>
				<path fill="#4CB821" d="M565.29,539.2h14.26l-1.76,9.7h-27.1l8.14-45.92h12.77L565.29,539.2z"/>
				<path fill="#4CB821" d="M591.25,547.47c-2.45-1.26-4.35-3.04-5.7-5.34c-1.35-2.3-2.02-4.99-2.02-8.08
					c0-4.17,0.99-7.95,2.96-11.33c1.98-3.39,4.7-6.04,8.17-7.95c3.47-1.91,7.36-2.87,11.66-2.87c3.17,0,5.98,0.63,8.43,1.89
					c2.45,1.26,4.36,3.05,5.73,5.37c1.37,2.32,2.05,5.03,2.05,8.11c0,4.21-1,8-3,11.37c-2,3.37-4.73,5.99-8.21,7.88
					c-3.47,1.89-7.36,2.83-11.66,2.83C596.51,549.36,593.7,548.73,591.25,547.47z M605.71,536.92c1.19-0.95,2.11-2.19,2.74-3.71
					c0.63-1.52,0.94-3.08,0.94-4.69c0-1.82-0.47-3.21-1.4-4.17c-0.93-0.95-2.14-1.43-3.62-1.43c-1.56,0-2.92,0.48-4.07,1.43
					c-1.15,0.96-2.04,2.19-2.67,3.71c-0.63,1.52-0.94,3.1-0.94,4.75c0,1.82,0.46,3.2,1.37,4.14c0.91,0.93,2.11,1.4,3.58,1.4
					C603.16,538.35,604.51,537.87,605.71,536.92z"/>
				<path fill="#4CB821" d="M629.42,520.67c2.06-2.8,4.62-4.96,7.69-6.48c3.06-1.52,6.39-2.28,10-2.28c4.65,0,8.34,1.27,11.07,3.81
					c2.74,2.54,4.17,6.09,4.3,10.65h-13.61c-0.35-2.39-1.67-3.58-3.97-3.58c-1.61,0-3,0.66-4.17,1.99
					c-1.17,1.33-1.98,3.27-2.41,5.83c-0.17,0.87-0.26,1.74-0.26,2.61c0,1.74,0.37,3.05,1.11,3.94c0.74,0.89,1.74,1.34,3,1.34
					c2.34,0,4.06-1.19,5.15-3.58h13.61c-1.69,4.52-4.35,8.06-7.98,10.62c-3.63,2.56-7.78,3.84-12.47,3.84
					c-4.78,0-8.56-1.3-11.37-3.91c-2.8-2.61-4.2-6.19-4.2-10.75c0-1.3,0.13-2.67,0.39-4.1
					C625.97,526.78,627.35,523.47,629.42,520.67z"/>
				<path fill="#4CB821" d="M668.66,520.7c1.87-2.82,4.11-4.99,6.74-6.51c2.63-1.52,5.4-2.28,8.3-2.28c2.52,0,4.6,0.5,6.25,1.5
					c1.65,1,2.8,2.34,3.45,4.04l0.91-5.08h12.77l-6.45,36.54h-12.77l0.91-5.08c-1.26,1.69-2.91,3.04-4.95,4.04
					c-2.04,1-4.3,1.5-6.77,1.5c-3.82,0-6.88-1.27-9.18-3.81c-2.3-2.54-3.45-6-3.45-10.39c0-1.43,0.13-2.95,0.39-4.56
					C665.51,526.82,666.79,523.52,668.66,520.7z M691.32,528.77c0-1.82-0.51-3.23-1.53-4.23c-1.02-1-2.33-1.5-3.94-1.5
					c-1.91,0-3.63,0.66-5.15,1.99c-1.52,1.33-2.48,3.18-2.87,5.57c-0.13,0.65-0.2,1.28-0.2,1.89c0,1.82,0.51,3.23,1.53,4.23
					c1.02,1,2.33,1.5,3.94,1.5c1.91,0,3.62-0.67,5.15-2.02c1.52-1.35,2.48-3.21,2.87-5.6C691.26,529.95,691.32,529.34,691.32,528.77
					z"/>
				<path fill="#4CB821" d="M729.3,500.7l-8.53,48.2h-12.83l8.53-48.2H729.3z"/>
			</g>
		</g>
	</g>
</g>
</svg>
